<?xml version="1.0" encoding="iso-8859-1"?>
<!-- Uploaded to: SVG Repo, www.svgrepo.com, Generator: SVG Repo Mixer Tools -->
<svg version="1.1" id="Layer_1" xmlns="http://www.w3.org/2000/svg" xmlns:xlink="http://www.w3.org/1999/xlink" 
	 viewBox="0 0 512 512" xml:space="preserve">
<path d="M473.56,397.576V103.232c0-7.04-5.76-12.8-12.8-12.8H51.32c-7.04,0-12.8,5.76-12.8,12.8v294.352
	C38.528,397.576,474.632,397.576,473.56,397.576z"/>
<rect x="54.52" y="106.432" style="fill:#E50914;" width="403.04" height="275.152"/>
<rect y="397.576" style="fill:#D8D8D8;" width="511.912" height="8"/>
<polygon style="fill:#AAAAAA;" points="486.408,421.568 25.688,421.568 0.088,405.576 512,405.576 "/>
<g style="opacity:0.7;">
	<path style="fill:#FFFFFF;" d="M298.992,397.576H212.92c0.816,4.488,4.824,8,9.832,8h66.4
		C294.168,405.576,298.176,402.064,298.992,397.576z"/>
</g>
<g>
	<path style="fill:#FFFFFF;" d="M256,185.912c20.264,0,36.688,16.424,36.688,36.688S276.264,259.288,256,259.288
		s-36.688-16.424-36.688-36.688S235.736,185.912,256,185.912z M197.904,335.992c0.632-35.04,26.376-63.256,58.096-63.256
		s57.464,28.208,58.096,63.256H197.904z"/>
	<path style="fill:#FFFFFF;" d="M360.376,152.032c12.736,0,23.056,10.32,23.056,23.056s-10.32,23.064-23.056,23.064
		s-23.056-10.32-23.056-23.056S347.64,152.032,360.376,152.032z M323.872,246.336c0.4-22.016,16.576-39.744,36.504-39.744
		s36.104,17.728,36.504,39.744H323.872z"/>
	<path style="fill:#FFFFFF;" d="M151.624,152.032c12.736,0,23.056,10.32,23.056,23.056s-10.32,23.064-23.056,23.064
		s-23.056-10.32-23.056-23.056C128.576,162.36,138.896,152.032,151.624,152.032z M115.12,246.336
		c0.4-22.016,16.576-39.744,36.504-39.744s36.104,17.728,36.504,39.744H115.12z"/>
</g>
</svg>