<?xml version="1.0" encoding="iso-8859-1"?>
<!-- Uploaded to: SVG Repo, www.svgrepo.com, Generator: SVG Repo Mixer Tools -->
<svg height="800px" width="800px" version="1.1" id="Layer_1" xmlns="http://www.w3.org/2000/svg" xmlns:xlink="http://www.w3.org/1999/xlink" 
	 viewBox="0 0 392.566 392.566" xml:space="preserve">
<polygon style="fill:#FFFFFF;" points="40.307,111.822 196.234,173.947 352.162,111.822 196.234,49.632 "/>
<path style="fill:#194F82;" d="M392.566,111.822c0-4.461-2.715-8.469-6.853-10.149L200.307,27.782c-2.521-1.034-5.495-1.034-8.016,0
	L6.885,101.608c-9.18,3.62-9.18,16.679,0,20.428l59.863,23.855v115.071c0.711,8.21,8.275,13.059,14.933,10.15
	c1.552-0.646,3.168-1.164,4.784-1.745c7.176,54.174,53.527,96.194,109.64,96.194s102.594-42.02,109.705-96.259
	c1.616,0.646,3.232,1.164,4.848,1.745c7.822,2.909,14.869-2.909,14.933-10.15V145.826l45.123-18.036v126.836
	c0,6.012,4.848,10.925,10.925,10.925s10.925-4.848,10.925-10.925V111.758h0V111.822z M303.871,245.253
	c-69.947-23.984-145.261-23.984-215.208,0v-90.699l103.564,41.244c2.715,1.034,5.43,1.034,8.145,0l103.564-41.244v90.699H303.871z
	 M196.234,343.58c-46.545,0-84.752-35.943-88.566-81.519c57.923-17.325,119.208-17.325,177.131,0
	C280.986,307.701,242.715,343.58,196.234,343.58z M196.234,173.947L40.307,111.822l155.927-62.125l155.927,62.125L196.234,173.947z"
	/>
<polygon style="fill:#56ACE0;" points="99.265,111.822 196.234,73.164 293.269,111.822 196.234,150.416 "/>
<path style="fill:#FFFFFF;" d="M192.226,195.798L88.663,154.554v90.699c69.947-23.984,145.261-23.984,215.208,0v-90.699
	l-103.564,41.244C197.592,196.897,194.877,196.897,192.226,195.798z"/>
<path style="fill:#FFC10D;" d="M107.669,262.061c3.814,45.576,42.02,81.519,88.566,81.519s84.752-35.943,88.566-81.519
	C226.877,244.865,165.527,244.865,107.669,262.061z"/>
</svg>